<?xml version="1.0" standalone="no"?>
<!DOCTYPE svg PUBLIC "-//W3C//DTD SVG 20010904//EN"
 "http://www.w3.org/TR/2001/REC-SVG-20010904/DTD/svg10.dtd">
<svg version="1.0" xmlns="http://www.w3.org/2000/svg"
 width="700.000000pt" height="700.000000pt" viewBox="0 0 700.000000 700.000000"
 preserveAspectRatio="xMidYMid meet">
<metadata>
Created by potrace 1.11, written by Peter Selinger 2001-2013
</metadata>
<g transform="translate(0.000000,700.000000) scale(0.100000,-0.100000)"
fill="#000000" stroke="none">
<path d="M3625 6209 c-1369 -434 -2547 -807 -2617 -829 l-128 -41 0 -1912 0
-1913 2618 -756 2617 -756 3 1749 c1 962 1 2536 0 3498 l-3 1749 -2490 -789z
m1823 -1366 c46 -38 71 -79 90 -152 19 -73 30 -765 13 -856 -15 -82 -68 -185
-108 -210 -35 -21 -42 -35 -19 -35 23 0 75 -49 97 -92 42 -83 50 -154 56 -548
8 -501 -9 -641 -85 -712 -72 -67 -107 -68 -582 -19 -217 23 -405 44 -417 47
-22 4 -23 8 -23 134 l0 130 75 -7 75 -6 0 1003 0 1002 -75 -4 -76 -3 3 130 3
130 390 52 c459 61 525 63 583 16z m-1130 -415 l-3 -323 -87 -3 -88 -3 0 186
c0 141 -3 185 -12 185 -7 0 -128 -11 -268 -25 -140 -14 -258 -25 -262 -25 -5
0 -8 -172 -8 -381 l0 -381 263 3 262 4 3 -122 3 -123 -263 -2 -263 -3 -3 -398
c-2 -313 0 -399 10 -402 11 -4 503 -55 531 -55 4 0 7 87 7 193 l0 192 83 -3
c45 -2 88 -5 95 -7 17 -6 18 -645 1 -645 -6 0 -245 27 -531 60 -287 33 -527
60 -534 60 -11 0 -14 25 -14 116 l0 116 70 -4 70 -4 0 889 c0 841 -1 888 -17
883 -10 -2 -42 -8 -70 -11 l-53 -7 0 115 0 115 133 17 c490 63 887 113 915
114 l32 1 -2 -322z m-1213 -56 c-3 -3 -45 -11 -93 -16 l-87 -11 -155 -927
c-85 -509 -158 -929 -162 -933 -7 -7 -201 14 -217 24 -5 4 -62 346 -125 761
-121 786 -124 806 -132 797 -3 -2 -70 -339 -149 -747 -80 -409 -146 -745 -148
-747 -5 -4 -210 17 -215 22 -4 3 -272 1571 -272 1588 0 5 -40 5 -90 1 l-90 -7
0 90 0 90 223 27 c122 15 234 29 250 32 l27 6 0 -95 0 -94 -60 -7 c-33 -4 -60
-10 -60 -14 -1 -23 185 -1192 190 -1192 3 0 63 325 134 723 71 397 131 724
132 725 4 6 254 35 259 31 2 -3 54 -347 117 -767 62 -419 115 -757 117 -750 2
7 57 313 121 681 l116 667 -68 0 -69 0 3 103 3 102 250 30 250 30 3 -109 c1
-60 0 -111 -3 -114z"/>
<path d="M5053 4567 l-213 -21 0 -430 0 -429 227 7 c258 7 253 6 278 89 12 41
15 117 15 381 0 189 -4 346 -10 367 -10 34 -43 61 -73 58 -7 -1 -108 -11 -224
-22z"/>
<path d="M4830 2971 l0 -471 23 -4 c12 -3 96 -12 187 -21 263 -24 283 -23 310
17 13 19 16 87 18 413 4 412 -1 477 -39 511 -19 17 -43 19 -260 22 l-239 3 0
-470z"/>
</g>
</svg>
